<?xml version="1.0" encoding="UTF-8"?>
<svg id="Layer_1" xmlns="http://www.w3.org/2000/svg" version="1.1" viewBox="0 0 76.7 100.2">
  <!-- Generator: Adobe Illustrator 29.1.0, SVG Export Plug-In . SVG Version: 2.1.0 Build 142)  -->
  <path d="M5,100.2h66.7c2.8,0,5-2.2,5-5V23.5c0-2.6-1-5.1-2.8-6.8l-13.7-13.7c-1.8-1.9-4.3-2.9-6.8-2.8H5C2.2.2,0,2.4,0,5.2v90c0,2.8,2.2,5,5,5h0ZM71.7,96.8H5c-.9,0-1.7-.7-1.7-1.7v-21.7h70v21.7c0,.4-.2.9-.5,1.2s-.7.5-1.2.5h0ZM71,18.5h-9.3c-1.8,0-3.3-1.5-3.3-3.3V5.9l12.6,12.6ZM5,3.5h48.3c.4,0,.9.2,1.2.5.3.3.5.7.5,1.2v10c0,1.8.7,3.5,2,4.7,1.2,1.2,2.9,2,4.7,2h10c.4,0,.9.2,1.2.5s.5.7.5,1.2v46.7H3.3V5.2c0-.9.7-1.7,1.7-1.7h0Z"/>
  <path d="M38.3,66.8c6.6,0,13-2.6,17.7-7.3,4.7-4.7,7.3-11,7.3-17.7s-2.6-13-7.3-17.7c-4.7-4.7-11-7.3-17.7-7.3s-13,2.6-17.7,7.3c-4.7,4.7-7.3,11-7.3,17.7,0,6.6,2.6,13,7.3,17.7,4.7,4.7,11,7.3,17.7,7.3h0ZM38.3,20.2c5.7,0,11.3,2.3,15.3,6.3,4.1,4.1,6.3,9.6,6.3,15.3s-2.3,11.3-6.3,15.3-9.6,6.3-15.3,6.3-11.3-2.3-15.3-6.3-6.3-9.6-6.3-15.3c0-5.7,2.3-11.3,6.4-15.3,4.1-4.1,9.6-6.3,15.3-6.4h0Z"/>
  <path d="M36,55.9c1.3,1.3,3.4,1.3,4.7,0l8.3-8.4h0c.9-.9,1.2-2.4.7-3.6-.5-1.2-1.7-2-3.1-2h-1.7v-11.7c0-.9-.4-1.7-1-2.4s-1.5-1-2.4-1h-6.7c-1.8,0-3.3,1.5-3.3,3.3v11.7h-1.7c-1.3,0-2.5.8-3.1,2-.5,1.2-.2,2.7.7,3.6l8.4,8.4ZM33.3,45.2c.4,0,.9-.2,1.2-.5s.5-.7.5-1.2v-13.3h6.7v13.3h0c0,.4.2.9.5,1.2s.7.5,1.2.5h3.3c0,0-8.3,8.3-8.3,8.3l-8.4-8.3h3.4Z"/>
  <path d="M25,76.8h-5c-.9,0-1.7.7-1.7,1.7v13.3c0,.9.7,1.7,1.7,1.7s1.7-.7,1.7-1.7v-5h3.3c2.8,0,5-2.2,5-5s-2.2-5-5-5h0ZM25,83.5h-3.3v-3.3h3.3c.9,0,1.7.7,1.7,1.7s-.7,1.7-1.7,1.7h0Z"/>
  <path d="M58.3,76.8h-8.3c-.9,0-1.7.7-1.7,1.7v13.3c0,.9.7,1.7,1.7,1.7s1.7-.7,1.7-1.7v-5h3.3c.9,0,1.7-.7,1.7-1.7s-.7-1.7-1.7-1.7h-3.3v-3.3h6.7c.9,0,1.7-.7,1.7-1.7s-.7-1.7-1.7-1.7h0Z"/>
  <path d="M40,76.8h-5c-.9,0-1.7.7-1.7,1.7v13.3c0,.4.2.9.5,1.2s.7.5,1.2.5h5c2.8,0,5-2.2,5-5v-6.7c0-2.8-2.2-5-5-5h0ZM41.7,88.5h0c0,.4-.2.9-.5,1.2s-.7.5-1.2.5h-3.3v-10h3.3c.4,0,.9.2,1.2.5s.5.7.5,1.2v6.7Z"/>
</svg>